<svg
   width="500mm"
   height="250mm"
   viewBox="0 0 500 250"
>
    <path
       style="fill:#dee9fe;stroke:none;stroke-width:0.264583px;stroke-linecap:butt;stroke-linejoin:miter;stroke-opacity:1;fill-opacity:1"
       d="M 9.6136194,77.689524 C 27.816796,77.162421 64.222891,76.108222 73.353151,77.102882 c 9.13026,0.994661 -9.014549,4.038088 -16.168017,6.246342 -7.153467,2.208255 -3.315488,3.581071 5.796867,4.289101 9.112356,0.708031 23.498493,0.751359 34.533746,1.092518 11.035253,0.341159 18.719023,0.9801 20.810043,1.805131 2.09103,0.825031 -1.41059,1.836174 -3.67079,2.755414 -2.2602,0.91924 -3.27872,1.746502 -9.60657,3.104011 -6.327836,1.35751 -17.964691,3.245189 -28.652882,3.772091 -10.688192,0.52689 -20.427165,-0.307052 -26.635157,-0.236883 -6.207992,0.07017 -8.884561,1.044513 -8.479645,1.531713 0.404916,0.48721 3.891119,0.48721 9.333474,1.25182 5.442356,0.7646 12.840459,2.29369 18.929213,3.12854 6.088754,0.83485 10.867854,0.97548 14.627315,2.53384 3.759462,1.55836 6.499097,4.53406 14.882595,6.35174 8.383497,1.81768 22.410227,2.47751 39.956587,2.90409 17.54636,0.42658 38.61124,0.61988 55.28695,-0.76984 16.6757,-1.38973 28.9614,-4.36233 39.40684,-5.2344 10.44543,-0.87207 19.04991,0.3563 20.21917,-0.10054 1.16925,-0.45684 -5.09665,-2.5989 -16.34295,-4.64624 -11.2463,-2.04733 -27.47219,-3.99975 -34.71353,-5.54079 -7.24133,-1.54103 -5.49762,-2.670509 -1.88255,-3.483528 3.61507,-0.813019 9.10106,-1.309552 21.34997,-0.652944 12.24891,0.656608 31.2598,2.466246 41.35207,2.591838 10.09227,0.125593 11.26581,-1.432847 5.58442,-2.943987 -5.68138,-1.511139 -18.21754,-2.974883 -25.9682,-4.05526 -7.75066,-1.080376 -10.71546,-1.777368 -11.17025,-2.5259 -0.45478,-0.748532 1.6006,-1.548431 6.8747,-1.721362 5.2741,-0.172931 13.7664,0.281035 18.34459,-0.005 4.57818,-0.286047 5.24236,-1.312121 15.33418,-0.728955 10.09183,0.583165 29.61014,2.775534 38.53823,4.355626 8.92808,1.580092 7.26579,2.547911 3.0472,3.044158 -4.21858,0.496248 -10.99335,0.520861 -14.91776,2.548973 -3.92441,2.028113 -4.99796,6.059382 -7.51953,7.916552 -2.52156,1.85718 -6.49129,1.54035 -9.89506,1.40457 -3.40377,-0.13577 -6.24137,-0.0905 -6.54337,0.37776 -0.302,0.46822 1.93149,1.35919 7.78687,1.97916 5.85538,0.61997 15.33225,0.96903 26.53506,-0.35229 11.20282,-1.32131 24.13091,-4.31282 40.20237,-6.13384 16.07146,-1.82103 35.28518,-2.47152 46.47462,-3.394814 11.18944,-0.923293 14.3542,-2.119279 14.16905,-3.459547 -0.18514,-1.340268 -3.72029,-2.824913 -12.44515,-4.670507 -8.72486,-1.845594 -22.6388,-4.05194 -31.61225,-5.767825 -8.97345,-1.715885 -13.00602,-2.94127 -12.32837,-3.592743 0.67765,-0.651472 6.06547,-0.728897 18.65235,-0.196319 12.58688,0.532579 32.37192,1.675097 49.56043,1.562409 17.1885,-0.112688 31.7795,-1.480513 37.33827,-3.107474 5.55876,-1.62696 2.08507,-3.51314 -1.09479,-4.47924 -3.17985,-0.966101 -6.0656,-1.011901 -6.97686,-1.658098 -0.91126,-0.646197 0.15225,-1.892765 4.06235,-2.848908 3.9101,-0.956142 10.66627,-1.621774 17.19472,-1.954585 6.52845,-0.332811 12.82878,-0.332811 18.65322,-0.332811 5.82443,0 11.17263,0 11.455,0.853401 0.28238,0.8534 -4.50086,2.56018 -10.78644,4.932548 -6.28558,2.372368 -14.07306,5.410162 -19.26588,7.967181 -5.19282,2.557019 -7.79058,4.633076 -2.00796,6.092179 5.78261,1.459102 19.94486,2.301119 28.95414,5.981658 9.00927,3.68054 12.86523,10.199035 13.79973,16.928575 0.93449,6.72954 -1.05222,13.66987 -11.28529,17.085 -10.23307,3.41514 -28.71204,3.30512 -44.39676,2.40988 -15.68473,-0.89524 -28.57433,-2.57567 -34.52457,-2.53265 -5.95024,0.043 -4.96074,1.80919 -1.56934,3.21941 3.3914,1.41023 9.18435,2.46469 20.97458,4.3192 11.79022,1.85451 29.57691,4.50894 37.38103,6.49282 7.80412,1.98388 5.62562,3.29718 -0.4529,3.76638 -6.07851,0.46921 -16.05677,0.0942 -20.38477,1.17634 -4.328,1.08209 -3.00549,3.62084 7.56901,5.15565 10.5745,1.5348 30.40007,2.0659 39.30987,13.04381 8.90981,10.9779 6.90382,32.4015 5.34954,50.47996 -1.55429,18.07845 -2.6568,32.81073 -10.50963,39.41745 -7.85283,6.60672 -22.45571,5.08785 -52.01183,3.96703 -29.55613,-1.12083 -74.06344,-1.84354 -96.55154,-2.78676 -22.48811,-0.94323 -22.95599,-2.10727 -23.11749,-3.94626 -0.1615,-1.83899 -0.0165,-4.35275 2.60507,-8.55693 2.62154,-4.20418 7.71938,-10.09826 9.28365,-18.26385 1.56427,-8.1656 -0.40512,-18.60247 -8.42004,-24.07378 -8.01493,-5.4713 -22.07502,-5.97652 -26.53921,-7.73966 -4.46418,-1.76314 0.66783,-4.78402 10.89871,-6.65338 10.23088,-1.86936 25.55975,-2.58715 38.44194,-3.6714 12.88219,-1.08425 23.31699,-2.53486 25.2287,-4.39722 1.91171,-1.86235 -4.69971,-4.13648 -26.5481,-6.12146 -21.84839,-1.98498 -58.9321,-3.68061 -80.30947,-5.87195 -21.37737,-2.19133 -27.04748,-4.87837 -26.63622,-6.80466 0.41127,-1.92629 6.90386,-3.09155 16.41454,-3.29956 9.51068,-0.20802 22.03873,0.54114 27.60753,0.0893 5.5688,-0.45185 4.17818,-2.10493 -0.25212,-3.63646 -4.4303,-1.53154 -11.89999,-2.9412 -24.35411,-3.53401 -12.45412,-0.59282 -29.89176,-0.36871 -39.88858,-1.8806 -9.99682,-1.51188 -12.55234,-4.75994 -18.50254,-6.80711 -5.9502,-2.04717 -15.29471,-2.89309 -16.51236,-1.71049 -1.21765,1.1826 5.69146,4.39348 6.71221,6.96344 1.02074,2.56996 -3.84665,4.49907 -9.05634,4.6728 -5.2097,0.17374 -10.76158,-1.40802 -21.08681,-3.00207 -10.32524,-1.59404 -25.42309,-3.20023 -36.0037,-3.4458 -10.58061,-0.24558 -16.64336,0.86951 -17.69015,2.31531 -1.04679,1.4458 2.92224,3.22204 12.65173,4.89744 9.72948,1.6754 25.21877,3.24998 34.43851,4.56994 9.21974,1.31996 12.16947,2.38513 11.81399,3.85412 -0.35549,1.46898 -4.01589,3.34186 -18.4968,4.83346 -14.48091,1.49161 -39.7814,2.60184 -53.72255,4.38091 -13.941147,1.77907 -16.522094,4.22687 -15.712547,5.58564 0.809547,1.35876 5.009205,1.6284 12.783108,1.85133 7.773899,0.22293 19.121509,0.39915 29.188889,1.93654 10.06738,1.53738 18.8539,4.43572 28.66052,5.45041 9.80662,1.01468 20.6328,0.14582 27.20679,1.21027 6.57399,1.06445 8.8955,4.06179 13.45539,6.49892 4.5599,2.43714 11.35776,4.31413 13.66719,6.44699 2.30943,2.13286 0.13069,4.52154 -12.11765,6.51583 -12.24835,1.99429 -34.56563,3.59413 -61.59536,3.41339 -27.02973,-0.18075 -58.770231,-2.14207 -76.495863,-1.80607 -17.725632,0.336 -21.435393,2.96931 -20.613325,4.5978 0.822069,1.62848 6.175585,2.25199 16.251244,4.32568 10.07566,2.07369 24.872746,5.59737 32.838387,9.34142 7.96564,3.74405 9.099717,7.70801 13.600167,10.26778 4.50045,2.55977 12.36673,3.7155 16.73113,7.76814 4.36439,4.05264 5.22697,11.00165 2.02215,14.33868 -3.20481,3.33702 -10.47699,3.06222 -33.841221,2.9111 -23.36423,-0.15112 -62.818787,-0.17856 -84.224552,-4.65943 -21.405765,-4.48088 -24.761667,-13.41515 -25.723559,-28.35753 -0.961891,-14.94238 0.470377,-35.89177 6.921718,-48.50086 6.4513417,-12.6091 17.9211052,-16.87701 29.738349,-19.53543 11.817243,-2.65842 23.981154,-3.70725 33.191154,-4.94627 9.210001,-1.23902 15.465642,-2.66812 15.402395,-3.87988 -0.06325,-1.21176 -6.44536,-2.2062 -13.995343,-2.82979 -7.549984,-0.6236 -16.267336,-0.87628 -21.743276,-2.81765 -5.475941,-1.94138 -7.710131,-5.57159 -13.635966,-8.33923 -5.9258344,-2.76763 -15.5430012,-4.67229 -22.4009065,-7.31883 -6.8579055,-2.64654 -10.9561705,-6.03496 -3.1792695,-7.95959 7.7769006,-1.92464 27.428292,-2.38515 38.775601,-3.19059 11.34731,-0.80544 14.390135,-1.95571 13.73867,-3.27785 -0.651464,-1.32214 -4.997285,-2.81623 -11.490008,-4.31382 -6.492723,-1.49759 -15.1319,-2.99853 -20.0913746,-4.5282 -4.9594744,-1.52968 -6.2389601,-3.08824 -4.9603376,-4.33667 1.2786226,-1.24844 5.115274,-2.186345 8.8286312,-2.925315 3.713357,-0.73897 7.303167,-1.278977 8.481285,-3.012498 1.178117,-1.733521 -0.0554,-4.660778 -6.373488,-7.058749 -6.3180929,-2.397971 -17.7204522,-4.266252 -22.4765068,-5.983658 -4.7560542,-1.717407 -2.8653792,-3.283767 -1.9200359,-4.066953 0.9453434,-0.783185 0.9453434,-0.78319 19.1485201,-1.310293 z"
       />
</svg>
