<svg
   width="500mm"
   height="500mm"
   viewBox="0 0 500 500">
  <g>
    <path
       style="fill:#2b3ac9;fill-opacity:1;stroke:none;stroke-width:0.264583px;stroke-linecap:butt;stroke-linejoin:miter;stroke-opacity:1"
       d="m 208.07096,169.031 0.0306,331.29579 291.90036,-0.32602 V 218.78488 c -3.10556,-4.25168 -4.03244,-5.95327 -5.57799,-7.33295 -2.04251,-1.2817 -3.26115,-1.58193 -4.99116,-2.20833 -3.75566,-2.56151 -3.62948,-3.65643 -5.44422,-5.48464 l -4.26289,-2.82901 c -1.99379,-1.40811 -3.16751,-2.9413 -4.38727,-4.46746 -1.16531,-0.81817 -2.1914,-1.3352 -4.93474,-2.85741 -1.7172,1.13332 -3.2164,1.86843 -4.69868,2.57262 -3.90412,-2.11453 -7.06768,-4.26753 -10.11685,-6.42646 -1.45607,-1.50338 -2.03847,-2.22529 -2.93222,-3.60229 l -2.16744,-2.9368 c -1.33967,0.53508 -5.03428,3.20876 -6.93253,4.50584 -1.17167,0.88891 -4.05738,2.23625 -6.14318,2.97265 l -7.57946,-8.27917 c -0.48705,-1.36352 -0.52127,-2.72118 -0.61616,-4.07963 -1.05553,0.0201 -2.09968,0.0796 -3.27417,0 0.026,-0.99825 -0.42092,-2.40091 -0.71964,-3.20024 -0.96316,0.0878 -1.67128,0.26283 -3.3373,-0.0989 -1.0885,-0.17841 -1.64415,-0.27498 -3.35462,-0.54892 -0.55305,0.41908 -1.24731,0.85533 -1.97874,1.29609 l -4.32038,0.75595 c -1.90862,1.29581 -3.52961,2.29606 -5.29442,4.17762 l -6.91033,7.47344 c -0.37665,0.91913 -1.00874,2.48756 -1.62013,4.00337 -2.50918,-0.6657 -5.30974,-1.57072 -6.93311,-2.84794 -0.95788,-1.49981 -2.8707,-3.56636 -3.60011,-4.33421 -0.80666,0.36437 -1.96055,1.00676 -2.62583,1.28498 0,0 -2.84586,5.04334 -4.77361,6.17727 -1.92776,1.13393 -8.91112,8.32557 -8.91112,8.32557 0,0 -4.52879,-2.56425 -6.52875,-3.41376 -1.99142,-0.84589 -14.9923,-6.83973 -14.9923,-6.83973 -2.0156,-3.36578 -4.37607,-6.48652 -6.91798,-9.47833 -0.9986,-0.92014 -8.56332,-5.3933 -12.63861,-8.25562 l -10.68248,-7.77175 c -3.65472,-2.51704 -6.5233,-3.51124 -9.45956,-5.15387 l -16.25315,-8.94242 -11.66465,-6.12769 -5.26527,-4.40029 -12.24811,-9.37591 -2.92391,1.85577 -14.28568,-9.94655 c -3.02325,-2.0256 -14.23588,-10.00213 -16.56219,-11.52931 -3.22789,-2.02413 -5.91815,-4.78289 -10.63813,-8.34103 l -11.86717,-9.205857 v 39.733177 z"
    />
    <path
       style="fill:#2e2ca5;fill-opacity:1;stroke:none;stroke-width:0.264583px;stroke-linecap:butt;stroke-linejoin:miter;stroke-opacity:1"
       d="m 208.63568,93.869572 c -4.24311,2.073731 -6.33526,3.471414 -10.89594,5.434873 -2.44543,0.960885 -7.15497,4.450555 -10.55086,7.338625 l -9.89996,8.79174 c -2.5791,2.695 -4.9623,5.46137 -8.22708,9.525 -1.68708,1.81367 -8.955,6.87965 -13.30059,10.15821 l -14.55122,9.98063 c -5.7647,3.81045 -13.55543,6.96095 -19.90357,10.3499 l -13.6403,7.07595 -21.101355,15.06977 c -5.258523,4.23735 -9.109858,7.83863 -13.258673,11.17129 l -14.332863,10.89895 c -0.810722,0.30506 -1.908649,0.5537 -3.862937,0.6341 -2.205038,-1.46592 -4.790572,-3.1351 -6.357771,-4.26028 l -8.444323,-4.75209 -5.06594,-1.96497 -7.240097,-1.96435 c -2.102497,-0.83423 -4.127649,-1.58922 -5.452302,-1.62654 -1.939295,1.95462 -4.766779,7.05273 -7.553306,12.00589 -3.808935,7.29318 -4.518724,9.01517 -6.1777216,12.4435 -0.8984697,0.78088 -3.0127366,0.7882 -4.8221955,0.98946 l -4.35841107,0.38235 -0.0749134,6.6317 0.17349667,281.39614 208.8293319,0.74495 c 0.25521,-10.50647 0.67006,-395.30047 0.0695,-406.454798 z"
    />
    <circle
       style="fill:#2e2ca5;stroke:#000000;stroke-width:0.264583"
       cx="264.86157"
       cy="131.03603"
       r="0.017661087" />
    <path
       style="fill:#2e2ca5;stroke:none;stroke-width:0.264583px;stroke-linecap:butt;stroke-linejoin:miter;stroke-opacity:1;fill-opacity:1"
       d="m 264.91276,131.03655 -9.20654,5.82996 -4.72867,4.08652 -4.5795,4.60435 -3.08487,2.12477 -4.32518,3.64421 11.07977,-2.09826 9.76165,-2.05234 11.47173,-1.93396 -2.09976,-6.23705 3.05991,0.55906 -5.08482,-6.82089 z"
   />
    <path
       style="fill:#2e2ca5;stroke:none;stroke-width:0.264583px;stroke-linecap:butt;stroke-linejoin:miter;stroke-opacity:1;fill-opacity:1"
       d="m 470.40365,193.60508 -4.69868,2.57262 -3.36486,0.61703 -1.17745,2.14689 0.94342,0.63722 -0.36322,2.64743 -0.10916,4.45076 -1.79134,4.67312 -3.64265,9.24692 -11.33864,31.82525 -9.51201,24.82796 -19.4678,40.27543 -211.44,-0.929 3.6603,183.73008 291.90034,-0.32602 V 320.57752 l -13.58757,-22.88754 -13.90711,-8.42865 -10.44564,-17.58439 -0.93035,-11.26122 1.33773,-15.7856 1.87092,-10.21566 3.16608,4.45483 10.89872,13.9296 2.29563,-1.01936 -3.75425,-14.75731 -2.7251,-16.07625 -3.45776,-14.40968 z"
      />
    <path
       style="fill:#2e2ca5;fill-opacity:1;stroke:none;stroke-width:0.264583px;stroke-linecap:butt;stroke-linejoin:miter;stroke-opacity:1"
       d="m 450.48844,183.21215 -1.72879,4.98614 -1.53228,4.94019 -1.09969,5.46086 -0.13192,5.25272 -0.98081,6.76566 -0.42468,5.87585 1.22648,5.91006 1.32252,3.51967 2.38185,3.84326 2.43414,2.39953 2.05516,2.0397 -2.47486,7.44532 -15.67281,-23.90127 -0.98428,-3.71427 c 0,0 1.14718,1.19118 0.92359,0.53778 -0.2236,-0.6534 -0.81762,-7.21181 -0.81762,-7.21181 l 0.99235,-4.90781 -4.10668,-6.98064 0.74896,-1.1965 0.90032,-1.91191 1.11564,-1.04724 2.7777,-0.6268 c 0.90599,-0.34776 3.98675,-1.727 5.31485,-2.42696 l 5.42038,-3.70329 z"
    />
    <path
       style="fill:#2e2ca5;fill-opacity:1;stroke:none;stroke-width:0.264583px;stroke-linecap:butt;stroke-linejoin:miter;stroke-opacity:1"
       d="m 425.94297,178.33184 0.92561,0.73796 0.94359,0.27366 0.66164,0.23937 c 0.0665,-0.088 0.12795,-0.16841 0.15656,-0.21998 0.20686,-0.001 0.40037,-0.01 0.65769,0.0185 l -0.0709,-1.04955 z"
    />
    <path
       style="fill:#2e2ca5;fill-opacity:1;stroke:none;stroke-width:0.264583px;stroke-linecap:butt;stroke-linejoin:miter;stroke-opacity:1"
       d="m 418.53141,174.48378 0.39097,0.76672 0.46567,0.88462 0.69159,1.30809 0.79259,1.47135 1.06013,1.06782 0.62471,1.28312 c 0,0 0.92845,1.10103 1.00171,1.29608 0.0733,0.19505 0.75253,1.63813 0.75253,1.63813 l 0.49572,0.99127 -0.20489,0.20118 -1.07358,-1.08112 -0.44555,-0.0775 0.39161,0.60466 -0.43498,-0.26597 0.89683,3.70139 -0.37459,0.81774 -1.78494,-1.97608 -3.37873,-2.40868 -0.49225,0.70282 0.18901,0.57718 -0.008,1.04685 -0.42955,1.93206 v 1.90474 l -0.58028,0.79769 v 1.22815 l -0.21143,2.36566 1.2342,2.31238 1.36633,2.82107 2.56096,3.37389 1.22399,1.84289 0.83169,2.63684 1.33707,1.91465 2.15826,1.54161 7.29993,2.33048 0.98428,3.71427 -5.74913,-1.89051 -3.46202,-1.89885 -4.65743,-2.00897 -3.02205,-1.45451 c 0,0 -2.76661,-1.68522 -3.12994,-1.92319 -0.36333,-0.23797 -2.95259,-3.263 -2.95259,-3.263 l -5.12921,-5.55543 -3.98524,-3.44327 -2.61702,-2.66572 -0.25138,-0.15627 -1.34609,-0.64639 c 0,0 -0.89585,-0.27018 -0.92583,-0.27553 -0.03,-0.005 -1.08376,-0.23848 -1.08376,-0.23848 l 0.85632,-0.13947 1.62015,-4.00337 c 3.83392,-4.02489 7.07535,-8.40681 12.20475,-11.65106 l 4.32039,-0.75595 z"
     />
    <path
       style="fill:#2e2ca5;fill-opacity:1;stroke:none;stroke-width:0.264583px;stroke-linecap:butt;stroke-linejoin:miter;stroke-opacity:1"
       d="m 387.87419,185.0081 -2.62583,1.28498 c -4.28288,5.13266 -8.96632,9.10743 -13.68476,14.50284 l -4.71969,5.31308 -3.19336,2.51282 -1.59491,1.05671 -2.97182,2.76233 -2.17617,0.53557 -3.26073,0.19244 -2.11185,-0.4835 -2.12421,-0.28348 h -2.45149 l -1.74512,-0.57912 h -2.6639 l -2.3,-0.29318 h -2.248 l -2.23092,-0.37235 -0.40968,1.70255 0.5705,1.10734 0.61891,-0.5194 0.76168,1.12571 0.82489,1.64953 0.47877,-0.40044 4.26027,0.44064 4.22306,1.54866 2.38011,1.13668 4.6254,2.52391 4.70752,2.11164 6.41027,3.35973 7.32293,2.22295 1.55664,-7.42176 0.25819,-3.0497 2.52198,-3.9245 1.16678,-1.69443 0.63519,-1.62606 1.19179,-2.16637 0.71398,-2.60953 -0.0917,-1.59974 c 0,0 0.80518,-1.0533 1.35483,-1.60096 0.54965,-0.54767 1.61996,-2.4757 1.61996,-2.4757 l 0.2839,-1.5643 0.99502,-2.05245 1.35797,-2.03263 v -1.8749 l 0.75023,-0.93945 -0.27363,-2.10158 -0.54467,-1.11153 c 0,0 -0.27946,-0.39352 -0.35719,-0.54753 -0.0777,-0.15402 -0.23368,-0.37507 -0.14983,-0.60582 0.0838,-0.23075 0.15004,-0.57613 0.15004,-0.57613 l 0.0241,-0.50394 c 0,0 0.0611,-0.34356 0.18931,-0.41891 0.12821,-0.0754 0.44347,-0.4289 0.44347,-0.4289 l 0.66114,-0.39053 0.46749,-0.28153 z"
    />
    <path
       style="fill:#2e2ca5;stroke:none;stroke-width:0.264583px;stroke-linecap:butt;stroke-linejoin:miter;stroke-opacity:1;fill-opacity:1"
       d="m 415.88126,317.52571 -9.31995,-5.9178 c 0,0 -1.28762,-2.13987 -4.0032,-3.91861 -2.71557,-1.77874 -3.47699,-1.88532 -5.26767,-3.35068 -1.79064,-1.46537 -9.26851,-4.68514 -9.26851,-4.68514 0,0 -2.77064,-4.26162 -3.57164,-4.79438 -0.801,-0.53274 -4.49693,-3.13923 -8.63494,-5.60073 -4.138,-2.4615 -14.4604,-6.95497 -14.60783,-7.70324 -0.14742,-0.74826 -4.75673,-6.2485 -5.25748,-6.95968 -0.50078,-0.71114 -2.53222,-2.36317 -4.15404,-4.3408 -1.62184,-1.97763 -7.79359,-7.4907 -7.79359,-7.4907 0,0 -6.27364,-3.14201 -7.32404,-5.38935 -1.05039,-2.24735 -0.48683,-2.08604 -2.02927,-3.1791 -1.54244,-1.09306 -4.68136,-3.1177 -7.16103,-4.87757 -2.4797,-1.75987 -2.92359,-0.95667 -4.2313,-3.17167 -1.30767,-2.215 -1.0065,-2.23347 -2.43924,-4.05784 -1.43277,-1.82436 -3.13402,-3.73402 -3.13402,-3.73402 0,0 -1.63012,-1.01698 -3.20273,-2.79861 -1.57257,-1.78163 -4.03267,-4.17379 -4.03267,-4.17379 l -7.50626,-5.07082 -1.19266,1.3773 1.46897,0.50133 0.61629,2.06809 c 0,0 -0.0899,0.52447 -1.22417,1.25783 -1.13427,0.73336 -1.00081,1.11198 -1.90267,1.11198 -0.90184,0 -0.69665,0.44706 -1.55739,-0.13364 -0.86077,-0.58069 -0.70996,-1.2457 -1.53276,-1.2457 -0.82283,0 -2.18557,1.69303 -2.18557,1.69303 l 1.76766,1.66099 c 0,0 1.97638,0.19565 3.00302,0.47504 1.02664,0.2794 3.1088,0.0984 3.76703,0.82432 0.65826,0.72591 1.00277,0.98232 2.26237,2.46107 1.25961,1.47875 1.02905,1.81119 1.81661,2.61639 0.78756,0.80519 1.48817,1.23513 1.9613,2.45618 0.47313,1.22106 1.40446,3.01469 1.50455,4.04986 0.1001,1.03517 -1.82925,5.80013 -1.82925,5.80013 l -4.24955,1.0694 -5.88589,-0.48381 -3.39228,0.49465 -0.85902,1.16302 -0.6659,2.29539 2.44612,0.46894 -1.95503,3.85113 c 0,0 -3.02318,4.23231 -3.39847,4.99143 -0.37528,0.75911 -1.42872,1.9795 -1.42872,1.9795 0,0 2.17847,0.6227 2.50576,1.44061 0.32732,0.81793 2.57204,-0.18378 2.57204,-0.18378 0,0 0.24344,-1.64907 0.24344,-2.65555 0,-1.00644 2.07103,-3.0689 2.07103,-3.0689 l 3.31907,-0.0206 4.02955,1.22029 c 0,0 3.33428,0.3805 4.15718,1.36213 0.82291,0.98163 1.99081,1.29365 2.89838,2.43234 0.90758,1.13866 3.62807,3.07493 3.62807,3.07493 0,0 3.3459,-1.49563 2.52564,-2.24491 -0.82029,-0.7493 1.81446,-2.48832 1.81446,-2.48832 l 8.19719,5.40252 2.30465,7.95893 1.30905,6.92764 c 0,0 -0.98629,2.74032 -0.98629,3.44681 0,0.70649 -0.53348,4.91606 -0.93159,5.76434 -0.39815,0.84826 -0.45699,0.79428 -2.02507,2.72754 -1.56806,1.93326 -1.2835,1.45947 -2.2189,2.72193 -0.93541,1.26246 -2.01732,2.38424 -2.39144,3.15928 -0.37415,0.77505 -2.3418,4.66389 -2.89314,4.84923 -0.55134,0.18537 -3.66525,1.66854 -4.68508,3.00884 -1.01987,1.34028 -2.81572,1.98464 -3.49359,2.75926 -0.67783,0.77462 1.59277,7.57309 1.59277,7.57309 l 118.18741,6.66229 z"
     />
    <path
       style="fill:#2e2ca5;stroke:none;stroke-width:0.264583px;stroke-linecap:butt;stroke-linejoin:miter;stroke-opacity:1;fill-opacity:1"
       d="m 207.78293,135.88343 2.34416,-1.58729 2.0745,-1.19692 3.00115,-0.31676 1.54649,2.41262 -2.55735,-11.79276 c 0,0 -1.66342,-4.51101 -1.8559,-6.54004 -0.19249,-2.02903 -2.3661,-8.99938 -2.3661,-8.99938 l -0.62784,-6.20914 -0.70636,-7.784188 -0.82257,29.249258 z"
     />
    <path
       style="fill:#2e2ca5;stroke:none;stroke-width:0.264583px;stroke-linecap:butt;stroke-linejoin:miter;stroke-opacity:1;fill-opacity:1"
       d="m 208.07096,169.031 5.47829,12.49714 3.03699,3.82011 1.84219,6.1701 2.63484,6.45163 1.79632,6.42912 3.43969,3.65964 1.94666,3.46989 3.30038,4.86386 5.17306,7.26608 5.57521,6.91653 3.42817,5.51009 4.83377,4.46405 2.64139,3.38495 -8.42135,-5.0747 -9.69932,-7.22973 -5.18378,-7.06055 -7.23535,-6.48914 -5.25051,-5.27364 0.15724,0.53772 5.01173,-0.5374 c 0,0 -2.31459,-7.07747 -3.79662,-6.8229 -1.48204,0.25457 -6.02229,-8.16974 -6.02229,-8.16974 l -9.52306,-9.02743 z"
      />
    <path
       style="fill:#2e2ca5;stroke:none;stroke-width:0.264583px;stroke-linecap:butt;stroke-linejoin:miter;stroke-opacity:1;fill-opacity:1"
       d="m 262.07007,318.71647 -7.39903,-3.76944 -7.67133,-5.33299 c 0,0 -2.42483,-1.81139 -4.10727,-3.46639 -1.68244,-1.65497 -9.14927,-5.34794 -9.14927,-5.34794 l -3.76484,-2.84724 -3.12169,-3.27718 -2.41115,-3.79373 -3.96448,-6.92896 -1.32789,-2.32865 -0.7979,-5.66113 -0.24781,-3.69446 -3.16322,-4.00936 -4.02938,-6.00641 V 258.069 l 3.90147,1.73114 1.32333,-2.43659 0.71976,-2.19187 -1.67806,-6.86307 -2.67512,-4.93715 -2.06658,-3.81896 -0.94102,-5.02995 0.80178,-2.73535 -2.13405,-4.39482 -8.00543,-13.50765 3.38037,-1.615 2.47687,2.44584 4.70921,2.18174 -0.0157,-2.79525 c 0,0 -1.5126,-2.50562 -3.27571,-3.2854 -1.76311,-0.77978 -8.10644,-4.47377 -8.10644,-4.47377 0,0 -9.91403,8.33012 -9.39821,10.25263 0.51581,1.92252 10.16479,109.23176 10.16479,109.23176 z"
     />
    <path
       style="fill:#2e2ca5;stroke:none;stroke-width:0.264583px;stroke-linecap:butt;stroke-linejoin:miter;stroke-opacity:1;fill-opacity:1"
       d="m 22.549899,185.73038 0.571713,3.46538 0.142068,3.44246 0.346815,0.98922 1.837902,0.35388 0.400904,1.04132 0.834925,1.66055 1.371074,-0.9691 0.981847,-1.78025 2.314972,-1.28527 2.212975,-0.33615 1.611953,-0.13605 0.243803,0.8518 4.887388,-1.74193 -5.06594,-1.96497 -7.240097,-1.96435 z"
     />
  </g>
</svg>
