<svg
   width="500mm"
   height="250mm"
   viewBox="0 0 500 250">
  <g>
    <path
       style="fill:#2b3ac9;fill-opacity:1;stroke:none;stroke-width:0.264583px;stroke-linecap:butt;stroke-linejoin:miter;stroke-opacity:1"
       d="m 198.23956,30.459058 20.0113,19.702004 c 4.32025,5.498348 8.64051,9.773387 12.96076,17.946502 2.42845,-0.267012 4.04169,-0.929246 5.57354,-1.630941 4.59464,-0.02982 12.984,9.737769 19.476,14.606653 1.83006,0.725684 7.72305,1.868082 13.20529,2.968352 l 31.83464,13.423292 23.60478,6.07608 46.55529,48.82121 3.3043,-66.370798 c 0.39746,-0.219017 1.26898,-0.191531 9.9387,3.890841 8.44611,4.56878 17.16109,12.103967 25.82955,19.125967 3.50864,2.85773 28.52912,10.89729 35.52905,13.27508 2.79391,1.01154 5.57098,6.00696 7.81748,9.56421 2.94097,1.1887 5.08039,2.37739 11.5048,3.56609 8.2492,-0.91562 11.31432,-0.3701 13.71147,0.36369 l 27.28773,10.34361 0.77882,109.35243 -220.22437,5.99971 -19.62044,-10.08455 -72.49628,-117.7766 -17.83152,-64.773651 z"
        />
    <path
       style="fill:#2e2ca5;stroke:none;stroke-width:0.264583px;stroke-linecap:butt;stroke-linejoin:miter;stroke-opacity:1;fill-opacity:1"
       d="m 198.23956,30.459058 c -1.60381,-1.764583 -2.50754,-1.687999 -4.09185,-0.09141 l -16.79012,15.553734 c -5.65851,5.117857 -12.90603,10.235713 -19.76805,15.35357 -4.60158,4.257474 -7.05313,8.236146 -9.80286,12.253484 -1.63241,2.314526 -13.55956,11.107239 -21.95424,17.429622 l -1.19647,2.457056 c -3.36956,5.792851 -6.36705,9.549856 -8.69041,14.324786 -1.17887,2.69595 -2.23824,5.39191 -4.4311,8.08786 -1.81511,0.72061 -4.40866,0.71311 -7.42697,0.30831 l -9.865815,-6.54431 c -0.587774,-1.49786 -0.799557,-2.82818 -1.838434,-4.98027 L 80.453332,96.386041 c -1.002531,-0.08921 -1.530681,0.510874 -2.08103,1.078703 l -7.804459,11.109896 c -0.709238,-0.1856 -1.460588,-0.44454 -1.80798,0 l -4.762,7.57694 -5.960933,7.66146 c -2.101765,0.3092 -3.271353,-0.48082 -4.509712,-1.18974 L 38.744154,110.32626 24.163755,101.04674 c -4.023223,0.13983 -5.816367,0.64571 -8.21473,-0.35347 -3.44927,-1.523725 -2.608008,-4.206089 -8.7086522,-8.686089 l -17.7531208,-6.331426 -2.177357,176.015295 209.404455,0.21276 90.22434,-0.42077 -17.62861,-55.29173 -37.74083,-29.46014 c -9.10858,-15.79682 -30.89204,-46.334 -27.32575,-47.39047 4.64496,-1.47937 22.58849,9.25658 21.28005,6.66864 -4.92463,-9.71567 -16.73184,-20.41375 -21.81366,-32.18088 L 192.4065,73.346466 c 3.63379,-1.889673 8.34252,-5.877203 10.39852,-4.687626 1.59713,2.107209 3.24771,3.966974 5.08588,4.958297 z"
      />
    <path
       style="fill:#2e2ca5;fill-opacity:1;stroke:none;stroke-width:0.264583px;stroke-linecap:butt;stroke-linejoin:miter;stroke-opacity:1"
       d="m 374.76546,86.001412 0.0175,5.654516 -1.41258,35.993462 3.11483,22.3595 c -6.65089,3.1286 -5.69841,2.68053 -5.02409,2.36332 -1.86763,2.07496 -4.67441,2.45366 -4.97721,7.35498 7.5183,9.85866 10.51308,22.18706 22.73633,29.47693 6.1851,1.94141 12.30991,3.8233 22.51538,9.73255 3.27744,3.18306 6.5208,8.65239 9.68759,19.25945 20.96381,4.16081 57.8601,5.42059 88.13323,5.52839 l -2.39338,31.75882 -220.22437,5.99971 -25.35419,-25.73225 7.72558,-29.55948 c 15.2702,1.84002 20.57222,1.63952 33.82329,0.006 6.02318,-4.14454 8.04484,-5.00278 10.33128,-12.96187 3.77625,-5.20151 6.24213,-13.73049 9.4174,-13.56263 8.03362,-0.3582 6.48923,-1.00412 17.00262,-40.17179 5.05189,-11.24316 12.36351,-21.21807 15.18924,-31.43405 7.18548,-8.216696 16.81002,-19.813515 19.69155,-22.065638 z"
       />
    <path
       style="fill:#2e2ca5;fill-opacity:1;stroke:none;stroke-width:0.264583px;stroke-linecap:butt;stroke-linejoin:miter;stroke-opacity:1"
       d="m 231.21162,68.107564 -2.2474,1.08534 -13.27003,10.724895 5.63652,-0.379419 4.83249,-0.210863 5.1523,-2.159079 5.99002,1.012972 0.0207,-4.188323 1.73338,-1.609618 -2.27442,-5.906846 c -1.62138,0.648818 -3.10433,1.359206 -5.57356,1.630941 z"
       />
  </g>
</svg>
