<svg
   width="500mm"
   height="250mm"
   viewBox="0 0 500 250">
    <path
       style="fill:#424cfc;fill-opacity:1;stroke:none;stroke-width:0.264583px;stroke-linecap:butt;stroke-linejoin:miter;stroke-opacity:1"
       d="m -8.9627907,92.355087 15.0489809,8.278833 4.6545318,4.32616 20.313979,9.36655 19.989332,-9.36838 c 4.665115,-4.55161 7.466516,-9.59406 12.015938,-14.944498 l 7.61239,-4.949595 19.708236,-21.61124 9.448355,-13.443106 c 2.952638,-4.005711 5.131918,-8.011423 8.880688,-12.017134 -0.37154,-1.998174 5.77214,4.807439 11.3125,10.797804 l 19.51839,14.65344 15.82918,7.531288 7.9524,-6.397226 c 2.96235,0.934765 4.56825,2.152758 6.07286,3.3919 l 26.79019,23.540892 13.35127,9.193745 37.0692,26.72211 c 10.30648,0.44352 13.2723,-1.84167 19.39936,-2.95175 6.65301,-2.81878 13.71381,-5.63755 17.51383,-8.45633 l 55.12837,-41.38554 28.19913,-16.735214 c 3.73544,-1.59664 7.38454,-1.913635 10.83098,0.77275 l 10.19244,7.606268 c 10.70629,9.090975 15.11745,11.090572 21.95735,15.826113 7.13266,0.717967 13.73852,0.07532 19.74723,-2.109679 l 12.71058,-7.487176 c 1.08156,-0.342238 1.40157,1.174151 2.99382,2.187035 l 25.43463,19.335194 c 20.26071,14.689239 21.99648,13.785739 32.98801,20.672959 l 1.78276,142.00265 -513.4751636,-5.5262 z" 
       />
</svg>
